<?xml version="1.0" encoding="UTF-8"?>
<svg id="Layer_1" xmlns="http://www.w3.org/2000/svg" version="1.1" viewBox="0 0 640 640">
  <!-- Generator: Adobe Illustrator 29.6.0, SVG Export Plug-In . SVG Version: 2.1.1 Build 207)  -->
  <path d="M455.55,64.45H184.45c-31.75,3.74-56.45,30.8-56.45,63.55v384c0,32.09,23.72,58.73,54.55,63.3h274.9c30.83-4.57,54.55-31.21,54.55-63.3V128c0-32.75-24.7-59.81-56.45-63.55ZM214.39,329.73c4.03-14.51,17.34-29.19,31.57-42.7l19.54-18.14.33-.31c9.6-8.94,19.74-18.77,29.25-29.14,9.5-10.38,18.36-21.31,25.34-32.45,13.86,22.15,34.9,43.38,54.23,61.24.13.12.25.23.38.35,6.41,6.02,12.97,12.04,19.82,18.45,14.29,13.56,27.59,28.13,31.58,42.7,1.93,7.49,2.1,15.33.48,22.88-1.66,9.41-5.74,18.21-11.83,25.56-.63.76-1.28,1.5-1.94,2.22-19.72,21.37-52.92,23.79-75.56,5.01-3.57-2.89-6.82-6.15-9.72-9.71h-.24c9.91,22.49,23.8,37.99,43.24,45.23v12.13h-101.29v-12.13c19.87-7.38,33.76-23.32,43.72-46.54-2.94,4.02-6.31,7.73-10.05,11.02-7.36,6.1-16.16,10.18-25.56,11.83-19.36,3.43-38.14-3.72-50.43-17.3-6.71-7.41-11.48-16.75-13.35-27.32-1.61-7.55-1.45-15.39.49-22.88Z"/>
</svg>