<?xml version="1.0" encoding="UTF-8"?>
<svg id="Layer_1" xmlns="http://www.w3.org/2000/svg" version="1.1" viewBox="0 0 640 640">
  <!-- Generator: Adobe Illustrator 29.6.0, SVG Export Plug-In . SVG Version: 2.1.1 Build 207)  -->
  <defs>
    <style>
      .st0 {
        fill: #fff;
      }
    </style>
  </defs>
  <path class="st0" d="M535.8,404.03s-.72-4.4-1.13-4.36l-79.82,7.7c-6.31.6-11.27,5.67-11.73,12l-2.2,31.44-61.75,4.41-4.2-28.48c-.99-6.37-6.46-11.07-12.91-11.08h-84.21c-6.44.03-11.9,4.75-12.87,11.12l-4.21,28.48-61.71-4.41-2.19-31.44c-.46-6.33-5.42-11.4-11.73-12l-79.86-7.7c-.41,0-.72,4.36-1.13,4.36l-.11,17.28,67.64,10.9,2.22,31.71c.48,6.43,5.57,11.56,12,12.07l85.05,6.06h1c6.43-.04,11.88-4.75,12.85-11.11l4.26-29.32h61.8l4.32,29.32c.97,6.37,6.44,11.08,12.88,11.11h.93l85.07-6.1c6.43-.51,11.52-5.64,12-12.07l2.21-31.71,67.6-10.95-.07-17.23Z"/>
  <path d="M104.14,273.92v130.23c.24-.02.47-.02.71,0l79.87,7.69c4.19.41,7.47,3.8,7.75,8l2.46,35.31,69.65,5,4.8-32.54c.62-4.22,4.24-7.34,8.5-7.34h84.26c4.26,0,7.88,3.12,8.5,7.34l4.8,32.54,69.63-5,2.46-35.25c.28-4.2,3.56-7.59,7.75-8l79.82-7.69c.24-.01.47-.01.71,0v-10.43h0v-119.85h.3c10.71-13.74,20.64-28.07,29.76-42.91-12.47-21.22-27.75-40.2-44.08-57.76-15.05,7.63-29.65,16.12-43.72,25.44-7-6.91-14.78-12.56-22.48-18.47-7.52-6.08-16.03-10.52-24.11-15.7,2.33-17.89,3.69-35.9,4.07-53.94-20.84-10.44-43.07-17.44-65.55-22.44-9,15.32-17.13,31.14-24.33,47.39-8.45-1.32-16.98-1.99-25.53-2h-.32c-8.55,0-17.08.68-25.53,2-7.19-16.25-15.32-32.07-24.33-47.39-22.46,5-44.7,12-65.52,22.44.37,18.04,1.73,36.05,4.07,53.94-8.09,5.18-16.59,9.63-24.15,15.7-7.68,5.92-15.53,11.56-22.49,18.47-14.07-9.33-28.67-17.83-43.74-25.44-16.33,17.58-31.6,36.54-44.06,57.76,9.11,14.85,19.05,29.17,29.76,42.91h.31Z"/>
  <path d="M464.21,428.22l-2.47,35.43c-.29,4.29-3.71,7.71-8,8l-85.06,6.07h-.62c-4.26,0-7.88-3.12-8.5-7.34l-4.88-33.07h-69.38l-4.87,33.07c-.66,4.45-4.63,7.64-9.12,7.32l-85.07-6.07c-4.29-.29-7.71-3.71-8-8l-2.47-35.43-71.81-6.93c0,7.72.13,16.17.13,17.86,0,75.82,96.19,112.29,215.72,112.71h.29c119.53-.42,215.7-36.87,215.7-112.71,0-1.72.1-10.14.14-17.86l-71.73,6.95Z"/>
  <path class="st0" d="M254.92,326.78c.02,26.58-21.51,48.13-48.09,48.15-26.58.02-48.13-21.51-48.15-48.09-.02-26.58,21.51-48.13,48.09-48.15h.04c26.56,0,48.09,21.53,48.11,48.09"/>
  <path d="M243.4,329.51c0,17.65-14.29,31.95-31.94,31.96-17.65,0-31.95-14.29-31.96-31.94,0-17.65,14.29-31.95,31.94-31.96h.02c17.63,0,31.93,14.29,31.94,31.92v.02"/>
  <path class="st0" d="M320.07,379.25c-8.55,0-15.49-6.3-15.49-14.07v-44.3c0-7.77,6.94-14.08,15.49-14.08s15.51,6.31,15.51,14.08v44.27c0,7.77-6.95,14.07-15.51,14.07"/>
  <path class="st0" d="M385.07,326.78c-.02,26.58,21.51,48.15,48.09,48.17,26.58.02,48.15-21.51,48.17-48.09.02-26.58-21.51-48.15-48.09-48.17,0,0-.02,0-.03,0-26.57,0-48.12,21.52-48.14,48.09"/>
  <path d="M396.73,329.51c0,17.64,14.3,31.94,31.94,31.94s31.94-14.3,31.94-31.94-14.3-31.94-31.94-31.94h-.01c-17.63,0-31.92,14.28-31.93,31.91v.03"/>
</svg>