<?xml version="1.0" encoding="UTF-8"?>
<svg id="Layer_1" xmlns="http://www.w3.org/2000/svg" version="1.1" xmlns:xlink="http://www.w3.org/1999/xlink" viewBox="0 0 640 640">
  <!-- Generator: Adobe Illustrator 29.6.0, SVG Export Plug-In . SVG Version: 2.1.1 Build 207)  -->
  <defs>
    <style>
      .st0 {
        fill: none;
      }

      .st1 {
        clip-path: url(#clippath);
      }

      .st2 {
        fill: #00000a;
        fill-rule: evenodd;
      }
    </style>
    <clipPath id="clippath">
      <rect class="st0" x="70" y="70" width="500" height="500"/>
    </clipPath>
  </defs>
  <g class="st1">
    <path class="st2" d="M383.95,458.99c61.13-28.87,80.3-82.2,84.61-102.97-22.35,22.89-47.08,46.09-63.71,30.03,0,0-.91-85.72-.91-120.87,0-47.27,44.82-82.49,44.82-82.49-24.65,4.39-54.25,13.17-85.68,44.01-2.84,2.81-5.52,5.77-8.05,8.86-13.46-10.31-30.91-7.22-30.91-7.22,9.43,5.18,18.84,20.26,18.84,32.75v122.76s-20.56,18.08-36.4,18.08c-7.25.05-14.07-3.4-18.32-9.27-1.25-1.64-2.29-3.43-3.09-5.33v-151.66c-4.68,3.86-20.51,7.05-20.51-19.23,0-16.32,11.76-35.78,32.71-47.72-28.76,4.39-55.7,16.81-77.7,35.84-16.72,14.45-30.09,32.36-39.18,52.5-9.09,20.14-13.69,42.01-13.48,64.11,0,0,15.32-47.85,34.5-52.28,9.91-2.61,20.05,3.31,22.66,13.21.46,1.74.66,3.54.6,5.34v112.37c0,11.39-7.34,13.88-14.13,13.76-4.6-.32-9.14-1.18-13.54-2.55,14.01,18.96,32.21,34.42,53.18,45.18,20.97,10.76,44.15,16.52,67.72,16.83l41.42-41.64,24.55,27.61h0ZM320,570c138.07,0,250-111.93,250-250,0-138.07-111.93-250-250-250s-250,111.93-250,250,111.93,250,250,250h0Z"/>
  </g>
</svg>